<svg width="44" height="34" viewBox="0 0 44 34" fill="none" xmlns="http://www.w3.org/2000/svg">
  <mask id="path-1-inside-1_3180_22" fill="white">
    <path
      d="M37 0C40.866 6.44256e-07 44 3.13401 44 7V23C44 26.866 40.866 30 37 30H15.502L12.5 34L9.49805 30H7C3.13401 30 1.61069e-08 26.866 0 23V7C2.57711e-07 3.13401 3.13401 0 7 0H37Z" />
  </mask>
  <path
    d="M37 0C40.866 6.44256e-07 44 3.13401 44 7V23C44 26.866 40.866 30 37 30H15.502L12.5 34L9.49805 30H7C3.13401 30 1.61069e-08 26.866 0 23V7C2.57711e-07 3.13401 3.13401 0 7 0H37Z"
    fill="#D9D9D9" />
  <path
    d="M37 0L37 -1H37V0ZM44 7L45 7L44 7ZM44 23L45 23V23H44ZM15.502 30V29H15.0021L14.7021 29.3998L15.502 30ZM12.5 34L11.7002 34.6002L12.5 35.666L13.2998 34.6002L12.5 34ZM9.49805 30L10.2979 29.3998L9.99785 29H9.49805V30ZM7 30L7 31H7V30ZM0 23L-1 23L0 23ZM0 7L-1 7V7H0ZM37 0L37 1C40.3137 1 43 3.68629 43 7L44 7L45 7C45 2.58172 41.4183 -0.999999 37 -1L37 0ZM44 7H43V23H44H45V7H44ZM44 23L43 23C43 26.3137 40.3137 29 37 29V30V31C41.4183 31 45 27.4183 45 23L44 23ZM37 30V29H15.502V30V31H37V30ZM15.502 30L14.7021 29.3998L11.7002 33.3998L12.5 34L13.2998 34.6002L16.3018 30.6002L15.502 30ZM12.5 34L13.2998 33.3998L10.2979 29.3998L9.49805 30L8.69823 30.6002L11.7002 34.6002L12.5 34ZM9.49805 30V29H7V30V31H9.49805V30ZM7 30L7 29C3.68629 29 1 26.3137 1 23L0 23L-1 23C-1 27.4183 2.58172 31 7 31L7 30ZM0 23H1V7H0H-1V23H0ZM0 7L1 7C1 3.68629 3.68629 1 7 1V0V-1C2.58172 -1 -1 2.58172 -1 7L0 7ZM7 0V1H37V0V-1H7V0Z"
    fill="black" mask="url(#path-1-inside-1_3180_22)" />
</svg>