<svg width="32" height="38" viewBox="0 0 32 38" fill="none" xmlns="http://www.w3.org/2000/svg">
<g clip-path="url(#clip0_3181_37)">
<rect x="0.5" y="0.5" width="31" height="37" rx="2.5" fill="#D9D9D9" stroke="black"/>
<path d="M8.5 4L6.25 6.5L4 9L8.5 14" stroke="black"/>
<path d="M15 4L17.25 6.5L19.5 9L15 14" stroke="black"/>
<line x1="12.4903" y1="4.09806" x2="10.4903" y2="14.0981" stroke="black"/>
<line x1="22" y1="5.5" x2="28" y2="5.5" stroke="black"/>
<line x1="23" y1="9.5" x2="28" y2="9.5" stroke="black"/>
<line x1="21" y1="13.5" x2="28" y2="13.5" stroke="black"/>
<line x1="5" y1="17.5" x2="22" y2="17.5" stroke="black"/>
<line x1="5" y1="21.5" x2="20" y2="21.5" stroke="black"/>
<line x1="5" y1="25.5" x2="23" y2="25.5" stroke="black"/>
<line x1="5" y1="29.5" x2="18" y2="29.5" stroke="black"/>
<line x1="5" y1="33.5" x2="27" y2="33.5" stroke="black"/>
</g>
<defs>
<clipPath id="clip0_3181_37">
<rect width="32" height="38" fill="white"/>
</clipPath>
</defs>
</svg>
